<svg width="80" height="97" viewBox="0 0 80 97" fill="none" xmlns="http://www.w3.org/2000/svg">
<path d="M40 97C50.4934 97 59 94.7614 59 92C59 89.2386 50.4934 87 40 87C29.5066 87 21 89.2386 21 92C21 94.7614 29.5066 97 40 97Z" fill="#D1DBFF"/>
<path d="M68.285 67.9704L47.07 89.088C45.1949 90.9526 42.6529 92 40.0025 92C37.3521 92 34.8101 90.9526 32.935 89.088L11.715 67.9704C6.12112 62.4018 2.3117 55.3072 0.768456 47.5836C-0.774786 39.86 0.0174681 31.8543 3.04503 24.5789C6.0726 17.3035 11.1995 11.0852 17.7774 6.71015C24.3553 2.33515 32.0888 0 40 0C47.9112 0 55.6447 2.33515 62.2226 6.71015C68.8005 11.0852 73.9274 17.3035 76.955 24.5789C79.9825 31.8543 80.7748 39.86 79.2315 47.5836C77.6883 55.3072 73.8789 62.4018 68.285 67.9704Z" fill="#4941F6"/>
<path d="M40 66C54.3594 66 66 54.3594 66 40C66 25.6406 54.3594 14 40 14C25.6406 14 14 25.6406 14 40C14 54.3594 25.6406 66 40 66Z" fill="#EDFF8D"/>
<ellipse cx="40.0002" cy="40" rx="5.60855" ry="5.51347" fill="#4A4AF2"/>
<ellipse cx="40" cy="23.0355" rx="4.7457" ry="2.96879" fill="#4A4AF2"/>
<ellipse cx="39.9999" cy="56.9646" rx="4.7457" ry="2.96879" fill="#4A4AF2"/>
<ellipse cx="4.68549" cy="3.00727" rx="4.68549" ry="3.00727" transform="matrix(0.506425 0.862284 -0.869688 0.493602 55.1876 25.9931)" fill="#4A4AF2"/>
<ellipse cx="4.68549" cy="3.00727" rx="4.68549" ry="3.00727" transform="matrix(0.506425 0.862284 -0.869688 0.493602 25.2977 42.9577)" fill="#4A4AF2"/>
<ellipse cx="4.68549" cy="3.00727" rx="4.68549" ry="3.00727" transform="matrix(-0.506425 0.862284 -0.869688 -0.493602 59.9333 45.9265)" fill="#4A4AF2"/>
<ellipse cx="4.68549" cy="3.00727" rx="4.68549" ry="3.00727" transform="matrix(-0.506425 0.862284 -0.869688 -0.493602 30.0431 28.9619)" fill="#4A4AF2"/>
</svg>
